<svg width="16" height="17" viewBox="0 0 16 17" fill="none" xmlns="http://www.w3.org/2000/svg">
<rect y="0.5" width="16" height="16" rx="4" fill="#1F79FF"/>
<path d="M11.4268 4.78244C11.5981 4.60961 11.8307 4.51158 12.074 4.50979C12.3173 4.508 12.5514 4.60259 12.7252 4.77288C12.899 4.94318 12.9983 5.17533 13.0014 5.41861C13.0045 5.66189 12.9112 5.89651 12.7418 6.07119L7.84182 12.1968C7.75764 12.2875 7.65606 12.3602 7.54315 12.4107C7.43024 12.4612 7.3083 12.4884 7.18463 12.4908C7.06096 12.4931 6.93809 12.4705 6.82335 12.4243C6.70861 12.3781 6.60436 12.3092 6.51682 12.2218L3.26807 8.97432C3.09543 8.8016 2.99848 8.56737 2.99854 8.32316C2.99859 8.07895 3.09566 7.84477 3.26838 7.67213C3.44111 7.49949 3.67533 7.40254 3.91954 7.4026C4.16375 7.40266 4.39793 7.49972 4.57057 7.67244L7.13995 10.2424L11.4024 4.81119C11.4102 4.80131 11.4185 4.79192 11.4274 4.78307L11.4268 4.78244Z" fill="white"/>
</svg>
