<svg width="20" height="20" viewBox="0 0 20 20" fill="none" xmlns="http://www.w3.org/2000/svg">
<path d="M5.57404 10.8115C6.3221 10.8275 7.0156 11.2133 7.48313 11.8883C8.05197 12.7159 8.99482 13.2141 10 13.2141C11.0052 13.2141 11.9481 12.7159 12.5169 11.8802C12.9844 11.2052 13.6779 10.8195 14.426 10.8034C13.865 9.82307 11.6208 9.19629 10 9.19629C8.38703 9.19629 6.13508 9.82308 5.57404 10.8115Z" fill="#1F79FF"/>
<path d="M3.76625 10.8034C5.05976 10.8034 6.10391 9.72665 6.10391 8.39272C6.10391 7.05879 5.05976 5.982 3.76625 5.982C2.47274 5.982 1.42859 7.05879 1.42859 8.39272C1.42859 9.72665 2.47274 10.8034 3.76625 10.8034Z" fill="#1F79FF"/>
<path d="M16.2338 10.8034C17.5273 10.8034 18.5714 9.72665 18.5714 8.39272C18.5714 7.05879 17.5273 5.982 16.2338 5.982C14.9403 5.982 13.8961 7.05879 13.8961 8.39272C13.8961 9.72665 14.9403 10.8034 16.2338 10.8034Z" fill="#1F79FF"/>
<path d="M10 8.39272C11.2935 8.39272 12.3377 7.31593 12.3377 5.982C12.3377 4.64807 11.2935 3.57129 10 3.57129C8.70651 3.57129 7.66235 4.64807 7.66235 5.982C7.66235 7.31593 8.70651 8.39272 10 8.39272Z" fill="#1F79FF"/>
<path d="M17.013 11.607H14.465C13.865 11.607 13.413 11.9686 13.1559 12.3463C13.1247 12.3945 12.0961 14.0177 10 14.0177C8.88573 14.0177 7.63898 13.5034 6.84417 12.3463C6.54028 11.9043 6.06495 11.607 5.53508 11.607H2.98703C2.12989 11.607 1.42859 12.3302 1.42859 13.2141V16.4284H6.88313V14.6124C7.77924 15.2552 8.86235 15.6249 10 15.6249C11.1377 15.6249 12.2208 15.2552 13.1169 14.6124V16.4284H18.5714V13.2141C18.5714 12.3302 17.8701 11.607 17.013 11.607Z" fill="#1F79FF"/>
</svg>
