<svg width="24" height="18" viewBox="0 0 24 18" fill="none" xmlns="http://www.w3.org/2000/svg">
<path fill-rule="evenodd" clip-rule="evenodd" d="M5.89796 2.14286C5.95508 0.943251 6.94432 0 8.14529 0H15.8547C17.0557 0 18.0449 0.943251 18.102 2.14286C18.1592 3.34246 19.1484 4.28571 20.3494 4.28571H21.0331C22.6717 4.28571 24 5.61405 24 7.25263V15C24 16.6569 22.6569 18 21 18H18.8571H5.14286H3C1.34315 18 0 16.6569 0 15V7.25263C0 5.61405 1.32834 4.28571 2.96692 4.28571H3.65063C4.8516 4.28571 5.84084 3.34246 5.89796 2.14286ZM16.1667 10C16.1667 12.3012 14.3012 14.1667 12 14.1667C9.69881 14.1667 7.83333 12.3012 7.83333 10C7.83333 7.69881 9.69881 5.83333 12 5.83333C14.3012 5.83333 16.1667 7.69881 16.1667 10ZM17 10C17 12.7614 14.7614 15 12 15C9.23858 15 7 12.7614 7 10C7 7.23858 9.23858 5 12 5C14.7614 5 17 7.23858 17 10Z" fill="#91979D"/>
</svg>
