<svg width="20" height="20" viewBox="0 0 20 20" fill="none" xmlns="http://www.w3.org/2000/svg">
<path d="M5.57404 10.8117C6.3221 10.8278 7.0156 11.2135 7.48313 11.8885C8.05197 12.7162 8.99482 13.2144 10 13.2144C11.0052 13.2144 11.9481 12.7162 12.5169 11.8805C12.9844 11.2055 13.6779 10.8197 14.426 10.8037C13.865 9.82332 11.6208 9.19653 10 9.19653C8.38703 9.19653 6.13508 9.82332 5.57404 10.8117Z" fill="white"/>
<path d="M3.76625 10.8037C5.05976 10.8037 6.10391 9.72689 6.10391 8.39296C6.10391 7.05903 5.05976 5.98225 3.76625 5.98225C2.47274 5.98225 1.42859 7.05903 1.42859 8.39296C1.42859 9.72689 2.47274 10.8037 3.76625 10.8037Z" fill="white"/>
<path d="M16.2338 10.8037C17.5273 10.8037 18.5714 9.72689 18.5714 8.39296C18.5714 7.05903 17.5273 5.98225 16.2338 5.98225C14.9403 5.98225 13.8961 7.05903 13.8961 8.39296C13.8961 9.72689 14.9403 10.8037 16.2338 10.8037Z" fill="white"/>
<path d="M10 8.39296C11.2935 8.39296 12.3377 7.31618 12.3377 5.98225C12.3377 4.64832 11.2935 3.57153 10 3.57153C8.70651 3.57153 7.66235 4.64832 7.66235 5.98225C7.66235 7.31618 8.70651 8.39296 10 8.39296Z" fill="white"/>
<path d="M17.013 11.6072H14.465C13.865 11.6072 13.413 11.9689 13.1559 12.3465C13.1247 12.3947 12.0961 14.018 10 14.018C8.88573 14.018 7.63898 13.5037 6.84417 12.3465C6.54028 11.9046 6.06495 11.6072 5.53508 11.6072H2.98703C2.12989 11.6072 1.42859 12.3305 1.42859 13.2144V16.4287H6.88313V14.6126C7.77924 15.2555 8.86235 15.6251 10 15.6251C11.1377 15.6251 12.2208 15.2555 13.1169 14.6126V16.4287H18.5714V13.2144C18.5714 12.3305 17.8701 11.6072 17.013 11.6072Z" fill="white"/>
</svg>
