<svg width="10" height="8" viewBox="0 0 10 8" fill="none" xmlns="http://www.w3.org/2000/svg">
<path id="Vector" d="M8.42682 0.282445C8.59806 0.109608 8.83075 0.0115827 9.07404 0.00979063C9.31733 0.00799858 9.55144 0.102586 9.72521 0.272881C9.89897 0.443176 9.99826 0.675331 10.0014 0.91861C10.0045 1.16189 9.91117 1.39651 9.74182 1.57119L4.84182 7.69682C4.75764 7.78745 4.65606 7.86019 4.54315 7.9107C4.43024 7.9612 4.3083 7.98843 4.18463 7.99076C4.06096 7.9931 3.93809 7.97048 3.82335 7.92428C3.70861 7.87807 3.60436 7.80921 3.51682 7.72182L0.268071 4.47432C0.0954314 4.3016 -0.00152342 4.06737 -0.00146482 3.82316C-0.00140621 3.57895 0.095661 3.34477 0.268383 3.17213C0.441106 2.99949 0.675334 2.90254 0.919542 2.9026C1.16375 2.90266 1.39793 2.99972 1.57057 3.17244L4.13995 5.74244L8.40245 0.311195C8.41019 0.301312 8.41854 0.291919 8.42745 0.28307L8.42682 0.282445Z" fill="white"/>
</svg>
