<svg width="20" height="20" viewBox="0 0 20 20" fill="none" xmlns="http://www.w3.org/2000/svg">
<path d="M13.2532 10.9669L11.4855 12.7347L16.4823 17.7315L18.25 15.9638L13.2532 10.9669Z" fill="#1F79FF"/>
<path d="M14.5832 8.4248C16.1915 8.4248 17.4999 7.11647 17.4999 5.50814C17.4999 5.0248 17.3665 4.57481 17.1582 4.1748L14.9082 6.4248L13.6665 5.18314L15.9165 2.93314C15.5165 2.7248 15.0665 2.59147 14.5832 2.59147C12.9749 2.59147 11.6665 3.8998 11.6665 5.50814C11.6665 5.8498 11.7332 6.1748 11.8415 6.4748L10.2999 8.01647L8.81654 6.53314L9.40821 5.94147L8.23321 4.76647L9.99988 2.9998C9.02488 2.0248 7.44154 2.0248 6.46654 2.9998L3.51654 5.9498L4.69154 7.1248H2.34154L1.74988 7.71647L4.69988 10.6665L5.29154 10.0748V7.71647L6.46654 8.89147L7.05821 8.29981L8.54154 9.78314L2.36654 15.9581L4.13321 17.7248L13.6165 8.2498C13.9165 8.35814 14.2415 8.4248 14.5832 8.4248Z" fill="#1F79FF"/>
</svg>
