<svg width="20" height="20" viewBox="0 0 20 20" fill="none" xmlns="http://www.w3.org/2000/svg">
<path d="M16.6666 3.33333H3.33329C2.41663 3.33333 1.66663 4.08333 1.66663 5V15C1.66663 15.9167 2.41663 16.6667 3.33329 16.6667H16.6666C17.5833 16.6667 18.3333 15.9167 18.3333 15V5C18.3333 4.08333 17.5833 3.33333 16.6666 3.33333ZM16.6666 15H3.33329V5H16.6666V15ZM3.33329 0H16.6666V1.66667H3.33329V0ZM3.33329 18.3333H16.6666V20H3.33329V18.3333ZM9.99996 10C11.15 10 12.0833 9.06667 12.0833 7.91667C12.0833 6.76667 11.15 5.83333 9.99996 5.83333C8.84996 5.83333 7.91663 6.76667 7.91663 7.91667C7.91663 9.06667 8.84996 10 9.99996 10ZM9.99996 7.08333C10.4583 7.08333 10.8333 7.45833 10.8333 7.91667C10.8333 8.375 10.4583 8.75 9.99996 8.75C9.54163 8.75 9.16663 8.375 9.16663 7.91667C9.16663 7.45833 9.54163 7.08333 9.99996 7.08333ZM14.1666 13.325C14.1666 11.5833 11.4083 10.8333 9.99996 10.8333C8.59163 10.8333 5.83329 11.5833 5.83329 13.325V14.1667H14.1666V13.325ZM7.34163 12.9167C7.84996 12.4833 9.03329 12.0833 9.99996 12.0833C10.975 12.0833 12.1583 12.4833 12.6666 12.9167H7.34163Z" fill="white"/>
</svg>
