<svg width="20" height="20" viewBox="0 0 20 20" fill="none" xmlns="http://www.w3.org/2000/svg">
<g id="more_vert">
<path id="Vector" d="M9.99998 6.66732C10.9166 6.66732 11.6666 5.91732 11.6666 5.00065C11.6666 4.08398 10.9166 3.33398 9.99998 3.33398C9.08331 3.33398 8.33331 4.08398 8.33331 5.00065C8.33331 5.91732 9.08331 6.66732 9.99998 6.66732ZM9.99998 8.33398C9.08331 8.33398 8.33331 9.08398 8.33331 10.0007C8.33331 10.9173 9.08331 11.6673 9.99998 11.6673C10.9166 11.6673 11.6666 10.9173 11.6666 10.0007C11.6666 9.08398 10.9166 8.33398 9.99998 8.33398ZM9.99998 13.334C9.08331 13.334 8.33331 14.084 8.33331 15.0007C8.33331 15.9173 9.08331 16.6673 9.99998 16.6673C10.9166 16.6673 11.6666 15.9173 11.6666 15.0007C11.6666 14.084 10.9166 13.334 9.99998 13.334Z" fill="#8B909D"/>
</g>
</svg>
