<svg width="20" height="20" viewBox="0 0 20 20" fill="none" xmlns="http://www.w3.org/2000/svg">
<path d="M10.975 3.33341L15 7.35841V16.6667H5.00004V3.33341H10.975ZM11.6667 1.66675H5.00004C4.08337 1.66675 3.33337 2.41675 3.33337 3.33341V16.6667C3.33337 17.5834 4.08337 18.3334 5.00004 18.3334H15C15.9167 18.3334 16.6667 17.5834 16.6667 16.6667V6.66675L11.6667 1.66675ZM12.5 9.16675H9.16671V10.0001H11.6667C12.125 10.0001 12.5 10.3751 12.5 10.8334V13.3334C12.5 13.7917 12.125 14.1667 11.6667 14.1667H10.8334V15.0001H9.16671V14.1667H7.50004V12.5001H10.8334V11.6667H8.33337C7.87504 11.6667 7.50004 11.2917 7.50004 10.8334V8.33341C7.50004 7.87508 7.87504 7.50008 8.33337 7.50008H9.16671V6.66675H10.8334V7.50008H12.5V9.16675Z" fill="white"/>
</svg>
