<svg width="44" height="42" viewBox="0 0 44 42" fill="none" xmlns="http://www.w3.org/2000/svg">
<rect x="0.5" y="0.5" width="43" height="41" rx="7.5" stroke="#E7E5ED"/>
<path d="M29 17H28V12H16V17H15C13.34 17 12 18.34 12 20V26H16V30H28V26H32V20C32 18.34 30.66 17 29 17ZM18 14H26V17H18V14ZM26 28H18V24H26V28ZM28 24V22H16V24H14V20C14 19.45 14.45 19 15 19H29C29.55 19 30 19.45 30 20V24H28Z" fill="#434850"/>
<path d="M28 21.5C28.5523 21.5 29 21.0523 29 20.5C29 19.9477 28.5523 19.5 28 19.5C27.4477 19.5 27 19.9477 27 20.5C27 21.0523 27.4477 21.5 28 21.5Z" fill="#434850"/>
</svg>
