<svg width="28" height="28" viewBox="0 0 28 28" fill="none" xmlns="http://www.w3.org/2000/svg">
<path d="M13.4808 11.7218C13.4402 11.7595 13.3726 11.7595 13.3321 11.7218C13.3231 11.7134 13.3163 11.7029 13.3118 11.6945L12.5279 12.4232C12.44 12.5049 12.2981 12.5049 12.208 12.4232L11.4308 11.7008C11.343 11.6192 11.343 11.4872 11.4308 11.4035L12.217 10.6727C12.2012 10.6685 12.1877 10.6601 12.1765 10.6497C12.1359 10.612 12.1359 10.5491 12.1765 10.5115L12.3702 10.3314L12.2035 10.1764L12.8185 9.60476L12.9852 9.75972L13.1789 9.57964C13.2194 9.54194 13.287 9.54194 13.3276 9.57964C13.3388 9.59011 13.3479 9.60476 13.3524 9.61733L14.1385 8.88653C14.2264 8.80487 14.3683 8.80487 14.4584 8.88653L15.2356 9.60895C15.3234 9.69062 15.3234 9.82254 15.2356 9.90629L14.4517 10.635C14.4517 10.635 14.4719 10.6455 14.4809 10.6538C14.5215 10.6915 14.5215 10.7544 14.4809 10.792L14.2872 10.9721L17.2743 13.7487L20 11.215L14.6769 6.2607C14.303 5.9131 13.697 5.9131 13.3231 6.2607L8.34015 10.8946L14.3278 16.4604L14.5215 16.2803C14.562 16.2426 14.6296 16.2426 14.6702 16.2803C14.6792 16.2887 14.6859 16.2992 14.6904 16.3076L15.4744 15.5789C15.5622 15.4972 15.7041 15.4972 15.7943 15.5789L16.5714 16.3013C16.6593 16.3829 16.6593 16.5149 16.5714 16.5986L15.7852 17.3294C15.801 17.3336 15.8145 17.342 15.8258 17.3524C15.8663 17.3901 15.8663 17.453 15.8258 17.4906L15.6321 17.6707L15.7988 17.8257L15.1838 18.3973L15.0171 18.2424L14.8234 18.4225C14.7828 18.4601 14.7152 18.4601 14.6747 18.4225C14.6634 18.412 14.6544 18.3973 14.6499 18.3848L13.8637 19.1156C13.7759 19.1972 13.6339 19.1972 13.5438 19.1156L12.7667 18.3931C12.6788 18.3115 12.6788 18.1796 12.7667 18.0958L13.5506 17.3671C13.5506 17.3671 13.5303 17.3566 13.5213 17.3483C13.4808 17.3106 13.4808 17.2477 13.5213 17.2101L13.715 17.03L10.728 14.2534L8 16.7892L13.3253 21.7393C13.6993 22.0869 14.3052 22.0869 14.6792 21.7393L19.6644 17.1054L13.6767 11.5396L13.483 11.7197L13.4808 11.7218Z" fill="#BDC1CC"/>
</svg>
