<svg width="20" height="20" viewBox="0 0 20 20" fill="none" xmlns="http://www.w3.org/2000/svg">
<path d="M15 3.33325H4.99996C3.15829 3.33325 1.66663 4.82492 1.66663 6.66659V13.3333C1.66663 15.1749 3.15829 16.6666 4.99996 16.6666H15C16.8416 16.6666 18.3333 15.1749 18.3333 13.3333V6.66659C18.3333 4.82492 16.8416 3.33325 15 3.33325ZM13.45 11.4749C13.25 11.6416 12.975 11.7083 12.7166 11.6416L3.45829 9.37492C3.70829 8.76659 4.29996 8.33325 4.99996 8.33325H15C15.5583 8.33325 16.05 8.61659 16.3583 9.03325L13.45 11.4749ZM4.99996 4.99992H15C15.9166 4.99992 16.6666 5.74992 16.6666 6.66659V7.12492C16.175 6.84159 15.6083 6.66659 15 6.66659H4.99996C4.39163 6.66659 3.82496 6.84159 3.33329 7.12492V6.66659C3.33329 5.74992 4.08329 4.99992 4.99996 4.99992Z" fill="white"/>
</svg>
