<svg width="20" height="20" viewBox="0 0 20 20" fill="none" xmlns="http://www.w3.org/2000/svg">
<path d="M10.975 3.33366L15 7.35866V16.667H5.00004V3.33366H10.975ZM11.6667 1.66699H5.00004C4.08337 1.66699 3.33337 2.41699 3.33337 3.33366V16.667C3.33337 17.5837 4.08337 18.3337 5.00004 18.3337H15C15.9167 18.3337 16.6667 17.5837 16.6667 16.667V6.66699L11.6667 1.66699ZM12.5 9.16699H9.16671V10.0003H11.6667C12.125 10.0003 12.5 10.3753 12.5 10.8337V13.3337C12.5 13.792 12.125 14.167 11.6667 14.167H10.8334V15.0003H9.16671V14.167H7.50004V12.5003H10.8334V11.667H8.33337C7.87504 11.667 7.50004 11.292 7.50004 10.8337V8.33366C7.50004 7.87533 7.87504 7.50033 8.33337 7.50033H9.16671V6.66699H10.8334V7.50033H12.5V9.16699Z" fill="#1F79FF"/>
</svg>
