<svg width="20" height="20" viewBox="0 0 20 20" fill="none" xmlns="http://www.w3.org/2000/svg">
<path d="M15 3.33301H4.99996C3.15829 3.33301 1.66663 4.82467 1.66663 6.66634V13.333C1.66663 15.1747 3.15829 16.6663 4.99996 16.6663H15C16.8416 16.6663 18.3333 15.1747 18.3333 13.333V6.66634C18.3333 4.82467 16.8416 3.33301 15 3.33301ZM13.45 11.4747C13.25 11.6413 12.975 11.708 12.7166 11.6413L3.45829 9.37468C3.70829 8.76634 4.29996 8.33301 4.99996 8.33301H15C15.5583 8.33301 16.05 8.61634 16.3583 9.03301L13.45 11.4747ZM4.99996 4.99967H15C15.9166 4.99967 16.6666 5.74967 16.6666 6.66634V7.12468C16.175 6.84134 15.6083 6.66634 15 6.66634H4.99996C4.39163 6.66634 3.82496 6.84134 3.33329 7.12468V6.66634C3.33329 5.74967 4.08329 4.99967 4.99996 4.99967Z" fill="#A2A7B3"/>
</svg>
