<svg width="20" height="20" viewBox="0 0 20 20" fill="none" xmlns="http://www.w3.org/2000/svg">
<path d="M15.8928 2.14282H4.10711C3.02226 2.14282 2.14282 3.02226 2.14282 4.10711V15.8928C2.14282 16.9777 3.02226 17.8571 4.10711 17.8571H15.8928C16.9777 17.8571 17.8571 16.9777 17.8571 15.8928V4.10711C17.8571 3.02226 16.9777 2.14282 15.8928 2.14282ZM3.12497 5.93109C3.12497 5.46615 3.56469 5.08925 4.10711 5.08925H15.8928C16.4352 5.08925 16.875 5.46615 16.875 5.93109V16.0331C16.875 16.4981 16.4352 16.875 15.8928 16.875H4.10711C3.56469 16.875 3.12497 16.4981 3.12497 16.0331V5.93109Z" fill="#4E505D" stroke="#4E505D"/>
<rect x="5" y="8.00024" width="10" height="2" fill="#4E505D"/>
<rect x="5" y="12.0002" width="6" height="2" fill="#4E505D"/>
</svg>
