<svg width="26" height="36" viewBox="0 0 26 36" fill="none" xmlns="http://www.w3.org/2000/svg">
<path d="M11.9182 12.874C11.8338 12.9588 11.693 12.9588 11.6085 12.874C11.5897 12.8551 11.5757 12.8316 11.5663 12.8127L9.93308 14.4523C9.75005 14.636 9.45438 14.636 9.26666 14.4523L7.64755 12.8269C7.46452 12.6431 7.46452 12.3463 7.64755 12.1578L9.28543 10.5135C9.25258 10.5041 9.22442 10.4853 9.20096 10.4617C9.11648 10.3769 9.11648 10.2356 9.20096 10.1508L9.60456 9.74558L9.25727 9.39694L10.5385 8.11072L10.8858 8.45936L11.2894 8.05418C11.3738 7.96938 11.5146 7.96938 11.5991 8.05418C11.6226 8.07774 11.6414 8.11072 11.6507 8.13899L13.2886 6.4947C13.4717 6.31095 13.7673 6.31095 13.955 6.4947L15.5742 8.12014C15.7572 8.30389 15.7572 8.60071 15.5742 8.78916L13.941 10.4287C13.941 10.4287 13.9832 10.4523 14.002 10.4711C14.0864 10.5559 14.0864 10.6973 14.002 10.7821L13.5984 11.1873L19.8214 17.4346L25.5 11.7338L14.4103 0.586572C13.6312 -0.195524 12.3688 -0.195524 11.5897 0.586572L1.20865 11.013L13.6828 23.5359L14.0864 23.1307C14.1709 23.0459 14.3117 23.0459 14.3962 23.1307C14.415 23.1496 14.429 23.1731 14.4384 23.192L16.0716 21.5524C16.2546 21.3687 16.5503 21.3687 16.738 21.5524L18.3571 23.1779C18.5402 23.3616 18.5402 23.6584 18.3571 23.8469L16.7193 25.4912C16.7521 25.5006 16.7803 25.5194 16.8037 25.543C16.8882 25.6278 16.8882 25.7691 16.8037 25.8539L16.4001 26.2591L16.7474 26.6078L15.4662 27.894L15.1189 27.5453L14.7153 27.9505C14.6308 28.0353 14.4901 28.0353 14.4056 27.9505C14.3821 27.927 14.3633 27.894 14.354 27.8657L12.7161 29.51C12.533 29.6938 12.2374 29.6938 12.0497 29.51L10.4305 27.8846C10.2475 27.7008 10.2475 27.404 10.4305 27.2155L12.0637 25.576C12.0637 25.576 12.0215 25.5524 12.0027 25.5336C11.9182 25.4488 11.9182 25.3074 12.0027 25.2226L12.4063 24.8174L6.18331 18.5701L0.5 24.2756L11.5944 35.4134C12.3735 36.1955 13.6359 36.1955 14.415 35.4134L24.8007 24.987L12.3265 12.4641L11.9229 12.8693L11.9182 12.874Z" fill="#181B20"/>
</svg>
