<svg width="24" height="24" viewBox="0 0 24 24" fill="none" xmlns="http://www.w3.org/2000/svg">
<path d="M17 20.332C18.3807 20.332 19.5 19.2127 19.5 17.832C19.5 16.4513 18.3807 15.332 17 15.332C15.6193 15.332 14.5 16.4513 14.5 17.832C14.5 19.2127 15.6193 20.332 17 20.332Z" stroke="#434850" stroke-width="2" stroke-linecap="round" stroke-linejoin="round"/>
<path d="M7 14.5C8.38071 14.5 9.5 13.3807 9.5 12C9.5 10.6193 8.38071 9.5 7 9.5C5.61929 9.5 4.5 10.6193 4.5 12C4.5 13.3807 5.61929 14.5 7 14.5Z" stroke="#434850" stroke-width="2" stroke-linecap="round" stroke-linejoin="round"/>
<path d="M9.15833 13.2578L14.85 16.5745" stroke="#434850" stroke-width="2" stroke-linecap="round" stroke-linejoin="round"/>
<path d="M17 8.66797C18.3807 8.66797 19.5 7.54868 19.5 6.16797C19.5 4.78726 18.3807 3.66797 17 3.66797C15.6193 3.66797 14.5 4.78726 14.5 6.16797C14.5 7.54868 15.6193 8.66797 17 8.66797Z" stroke="#434850" stroke-width="2" stroke-linecap="round" stroke-linejoin="round"/>
<path d="M14.8417 7.42578L9.15833 10.7424" stroke="#434850" stroke-width="2" stroke-linecap="round" stroke-linejoin="round"/>
</svg>
