<svg width="20" height="20" viewBox="0 0 20 20" fill="none" xmlns="http://www.w3.org/2000/svg">
<path d="M15.8928 2.14258H4.10711C3.02226 2.14258 2.14282 3.02202 2.14282 4.10686V15.8926C2.14282 16.9774 3.02226 17.8569 4.10711 17.8569H15.8928C16.9777 17.8569 17.8571 16.9774 17.8571 15.8926V4.10686C17.8571 3.02202 16.9777 2.14258 15.8928 2.14258ZM3.12497 5.93084C3.12497 5.46591 3.56469 5.08901 4.10711 5.08901H15.8928C16.4352 5.08901 16.875 5.46591 16.875 5.93084V16.0329C16.875 16.4978 16.4352 16.8747 15.8928 16.8747H4.10711C3.56469 16.8747 3.12497 16.4978 3.12497 16.0329V5.93084Z" fill="#8B909D" stroke="#8B909D"/>
<rect x="5" y="8" width="10" height="2" fill="#8B909D"/>
<rect x="5" y="12" width="6" height="2" fill="#8B909D"/>
</svg>
