<svg width="22" height="30" viewBox="0 0 22 30" fill="none" xmlns="http://www.w3.org/2000/svg">
<path d="M10.0481 10.7283C9.97372 10.799 9.84982 10.799 9.77548 10.7283C9.75896 10.7126 9.74657 10.693 9.73831 10.6773L8.30111 12.0436C8.14004 12.1967 7.87986 12.1967 7.71466 12.0436L6.28984 10.689C6.12878 10.5359 6.12878 10.2886 6.28984 10.1315L7.73118 8.76129C7.70227 8.75343 7.67749 8.73773 7.65684 8.7181C7.5825 8.64743 7.5825 8.52964 7.65684 8.45897L8.01201 8.12132L7.7064 7.83078L8.83387 6.75893L9.13948 7.04947L9.49465 6.71182C9.56899 6.64115 9.69289 6.64115 9.76722 6.71182C9.78787 6.73145 9.80439 6.75893 9.81265 6.78249L11.254 5.41225C11.4151 5.25913 11.6752 5.25913 11.8404 5.41225L13.2653 6.76678C13.4263 6.9199 13.4263 7.16725 13.2653 7.3243L11.828 8.69062C11.828 8.69062 11.8652 8.71025 11.8817 8.72595C11.9561 8.79662 11.9561 8.91441 11.8817 8.98508L11.5266 9.32273L17.0028 14.5289L22 9.77817L12.241 0.48881C11.5555 -0.162937 10.4445 -0.162937 9.75896 0.48881L0.623616 9.17746L11.6009 19.6133L11.9561 19.2756C12.0304 19.2049 12.1543 19.2049 12.2286 19.2756C12.2452 19.2913 12.2576 19.311 12.2658 19.3267L13.703 17.9603C13.8641 17.8072 14.1243 17.8072 14.2895 17.9603L15.7143 19.3149C15.8754 19.468 15.8754 19.7154 15.7143 19.8724L14.2729 21.2426C14.3019 21.2505 14.3266 21.2662 14.3473 21.2858C14.4216 21.3565 14.4216 21.4743 14.3473 21.545L13.9921 21.8826L14.2977 22.1731L13.1703 23.245L12.8647 22.9545L12.5095 23.2921C12.4351 23.3628 12.3112 23.3628 12.2369 23.2921C12.2163 23.2725 12.1997 23.245 12.1915 23.2214L10.7501 24.5917C10.5891 24.7448 10.3289 24.7448 10.1637 24.5917L8.73888 23.2371C8.57781 23.084 8.57781 22.8367 8.73888 22.6796L10.1761 21.3133C10.1761 21.3133 10.1389 21.2937 10.1224 21.278C10.0481 21.2073 10.0481 21.0895 10.1224 21.0188L10.4776 20.6812L5.00131 15.4751L0 20.2297L9.76309 29.5112C10.4487 30.1629 11.5596 30.1629 12.2452 29.5112L21.3846 20.8225L10.4074 10.3867L10.0522 10.7244L10.0481 10.7283Z" fill="#BDC1CC"/>
</svg>
