<svg width="19" height="19" viewBox="0 0 19 19" fill="none" xmlns="http://www.w3.org/2000/svg">
<path fill-rule="evenodd" clip-rule="evenodd" d="M9.5 2.43746L7.7482 4.24998C7.56174 4.4429 7.30494 4.55184 7.03664 4.55184H4.55209V7.0364C4.55209 7.3047 4.44314 7.5615 4.25022 7.74796L2.4377 9.49976L4.25022 11.2516C4.44314 11.438 4.55209 11.6948 4.55209 11.9631V14.4477H7.03664C7.30494 14.4477 7.56174 14.5566 7.7482 14.7495L9.5 16.5621L11.2518 14.7495C11.4383 14.5566 11.6951 14.4477 11.9634 14.4477H14.4479V11.9631C14.4479 11.6948 14.5569 11.438 14.7498 11.2516L16.5623 9.49976L14.7498 7.74796C14.5569 7.56151 14.4479 7.3047 14.4479 7.0364V4.55184H11.9634C11.6951 4.55184 11.4383 4.4429 11.2518 4.24998L9.5 2.43746ZM8.78844 1.46495C9.17744 1.06246 9.82256 1.06247 10.2116 1.46495L12.0473 3.36434H14.6458C15.1924 3.36434 15.6354 3.80739 15.6354 4.35393V6.95244L17.5348 8.7882C17.9373 9.1772 17.9373 9.82232 17.5348 10.2113L15.6354 12.0471V14.6456C15.6354 15.1921 15.1924 15.6352 14.6458 15.6352H12.0473L10.2116 17.5346C9.82256 17.9371 9.17744 17.9371 8.78844 17.5346L6.95268 15.6352H4.35417C3.80764 15.6352 3.36459 15.1921 3.36459 14.6456V12.0471L1.46519 10.2113C1.06271 9.82232 1.06271 9.1772 1.46519 8.7882L3.36459 6.95244V4.35392C3.36459 3.80739 3.80764 3.36434 4.35417 3.36434H6.95268L8.78844 1.46495Z" fill="#1F79FF"/>
<path fill-rule="evenodd" clip-rule="evenodd" d="M5.73959 9.49976C5.73959 7.42294 7.42318 5.73934 9.5 5.73934C11.5768 5.73934 13.2604 7.42294 13.2604 9.49976C13.2604 11.5766 11.5768 13.2602 9.5 13.2602C7.42318 13.2602 5.73959 11.5766 5.73959 9.49976ZM9.5 6.92684C8.07902 6.92684 6.92709 8.07878 6.92709 9.49976C6.92709 10.9207 8.07902 12.0727 9.5 12.0727C10.921 12.0727 12.0729 10.9207 12.0729 9.49976C12.0729 8.07878 10.921 6.92684 9.5 6.92684Z" fill="#1F79FF"/>
<path fill-rule="evenodd" clip-rule="evenodd" d="M9.5 2.43746L7.7482 4.24998C7.56174 4.4429 7.30494 4.55184 7.03664 4.55184H4.55209V7.0364C4.55209 7.3047 4.44314 7.5615 4.25022 7.74796L2.4377 9.49976L4.25022 11.2516C4.44314 11.438 4.55209 11.6948 4.55209 11.9631V14.4477H7.03664C7.30494 14.4477 7.56174 14.5566 7.7482 14.7495L9.5 16.5621L11.2518 14.7495C11.4383 14.5566 11.6951 14.4477 11.9634 14.4477H14.4479V11.9631C14.4479 11.6948 14.5569 11.438 14.7498 11.2516L16.5623 9.49976L14.7498 7.74796C14.5569 7.56151 14.4479 7.3047 14.4479 7.0364V4.55184H11.9634C11.6951 4.55184 11.4383 4.4429 11.2518 4.24998L9.5 2.43746ZM8.78844 1.46495C9.17744 1.06246 9.82256 1.06247 10.2116 1.46495L12.0473 3.36434H14.6458C15.1924 3.36434 15.6354 3.80739 15.6354 4.35393V6.95244L17.5348 8.7882C17.9373 9.1772 17.9373 9.82232 17.5348 10.2113L15.6354 12.0471V14.6456C15.6354 15.1921 15.1924 15.6352 14.6458 15.6352H12.0473L10.2116 17.5346C9.82256 17.9371 9.17744 17.9371 8.78844 17.5346L6.95268 15.6352H4.35417C3.80764 15.6352 3.36459 15.1921 3.36459 14.6456V12.0471L1.46519 10.2113C1.06271 9.82232 1.06271 9.1772 1.46519 8.7882L3.36459 6.95244V4.35392C3.36459 3.80739 3.80764 3.36434 4.35417 3.36434H6.95268L8.78844 1.46495Z" stroke="#1F79FF" stroke-width="0.5"/>
<path fill-rule="evenodd" clip-rule="evenodd" d="M5.73959 9.49976C5.73959 7.42294 7.42318 5.73934 9.5 5.73934C11.5768 5.73934 13.2604 7.42294 13.2604 9.49976C13.2604 11.5766 11.5768 13.2602 9.5 13.2602C7.42318 13.2602 5.73959 11.5766 5.73959 9.49976ZM9.5 6.92684C8.07902 6.92684 6.92709 8.07878 6.92709 9.49976C6.92709 10.9207 8.07902 12.0727 9.5 12.0727C10.921 12.0727 12.0729 10.9207 12.0729 9.49976C12.0729 8.07878 10.921 6.92684 9.5 6.92684Z" stroke="#1F79FF" stroke-width="0.5"/>
</svg>
