<svg width="91" height="26" viewBox="0 0 91 26" fill="none" xmlns="http://www.w3.org/2000/svg">
<path d="M9.74805 12.5508C9.74805 15.75 7.80664 17.6367 5.20898 17.6367C2.61133 17.6367 0.669922 15.7363 0.669922 12.5508C0.669922 9.35156 2.61133 7.46484 5.20898 7.46484C7.80664 7.46484 9.74805 9.35156 9.74805 12.5508ZM7.95703 12.5508C7.95703 10.2949 6.82227 9.06445 5.20898 9.06445C3.5957 9.06445 2.46094 10.2949 2.46094 12.5508C2.46094 14.8066 3.5957 16.0371 5.20898 16.0371C6.82227 16.0371 7.95703 14.8066 7.95703 12.5508ZM11.054 17.5V7.60156H14.7727C17.0423 7.60156 18.2591 8.98242 18.2591 10.8828C18.2591 12.7832 17.0286 14.1504 14.7454 14.1504H12.8313V17.5H11.054ZM12.8313 12.6875H14.4993C15.8391 12.6875 16.4407 11.9355 16.4407 10.8828C16.4407 9.81641 15.8391 9.0918 14.4993 9.0918H12.8313V12.6875ZM19.4146 17.5V7.60156H25.8541V9.0918H21.192V11.7988H25.5123V13.2891H21.192V15.9961H25.8814V17.5H19.4146ZM35.4178 7.60156V17.5H33.8319L29.1424 10.7324H29.0604V17.5H27.283V7.60156H28.8963L33.5584 14.3691H33.6541V7.60156H35.4178Z" fill="#1F79FF"/>
<rect x="45.5" y="0.5" width="45" height="25" rx="12.5" fill="#1F79FF"/>
<rect x="45.5" y="0.5" width="45" height="25" rx="12.5" stroke="#1F79FF"/>
<circle cx="78" cy="13" r="10" fill="white"/>
</svg>
