<svg width="17" height="16" viewBox="0 0 17 16" fill="none" xmlns="http://www.w3.org/2000/svg">
<g id="telephone-fill">
<path id="telephone-fill_2" fill-rule="evenodd" clip-rule="evenodd" d="M2.08472 0.511076C2.82684 -0.231039 4.05145 -0.154797 4.69578 0.673634L6.48949 2.97983C6.81865 3.40304 6.93497 3.95409 6.80493 4.47423L6.25767 6.66329C6.19989 6.8944 6.26761 7.13888 6.43605 7.30732L8.89263 9.7639C9.06108 9.93235 9.30555 10.0001 9.53666 9.94229L11.7257 9.39502C12.2459 9.26499 12.7969 9.3813 13.2201 9.71047L15.5263 11.5042C16.3547 12.1485 16.431 13.3731 15.6889 14.1152L14.655 15.1492C13.9152 15.8889 12.8088 16.2137 11.7777 15.8512C9.21749 14.9511 6.81433 13.4774 4.76844 11.4315C2.72255 9.38562 1.2489 6.98246 0.348789 4.42225C-0.0137312 3.39112 0.311081 2.28472 1.0508 1.545L2.08472 0.511076Z" fill="#1F79FF"/>
</g>
</svg>
