<svg width="24" height="25" viewBox="0 0 24 25" fill="none" xmlns="http://www.w3.org/2000/svg">
<rect y="0.5" width="24" height="24" rx="12" fill="#EDEBF6"/>
<g clip-path="url(#clip0_2045_41882)">
<path d="M9.61541 15.008C9.61541 15.344 9.56407 15.6753 9.46141 16.002C9.36807 16.3287 9.20474 16.6227 8.97141 16.884C8.74741 17.136 8.44407 17.3413 8.06141 17.5C7.68807 17.6493 7.22141 17.724 6.66141 17.724C5.72807 17.724 5.00941 17.4813 4.50541 16.996C4.00141 16.5013 3.74941 15.778 3.74941 14.826V14.21H5.07941V14.63C5.07941 14.9193 5.10274 15.1853 5.14941 15.428C5.19607 15.6707 5.27541 15.8807 5.38741 16.058C5.50874 16.2353 5.67207 16.3753 5.87741 16.478C6.09207 16.5713 6.36274 16.618 6.68941 16.618C7.29607 16.618 7.71141 16.4547 7.93541 16.128C8.16874 15.8013 8.28541 15.3627 8.28541 14.812V7.504H9.61541V15.008ZM13.1232 16.38H15.3352C15.4845 16.38 15.6712 16.3707 15.8952 16.352C16.1192 16.324 16.3572 16.268 16.6092 16.184C16.8612 16.0907 17.1085 15.96 17.3512 15.792C17.6032 15.624 17.8272 15.3953 18.0232 15.106C18.2192 14.8167 18.3778 14.4573 18.4992 14.028C18.6298 13.5893 18.6952 13.062 18.6952 12.446C18.6952 11.8487 18.6345 11.3167 18.5132 10.85C18.4012 10.374 18.2098 9.97267 17.9392 9.646C17.6778 9.31 17.3372 9.058 16.9172 8.89C16.4972 8.71267 15.9792 8.624 15.3632 8.624H13.1232V16.38ZM11.7932 7.504H15.2232C16.7632 7.504 17.9485 7.896 18.7792 8.68C19.6098 9.464 20.0252 10.6587 20.0252 12.264C20.0252 13.104 19.9318 13.8507 19.7452 14.504C19.5585 15.148 19.2692 15.694 18.8772 16.142C18.4852 16.5807 17.9858 16.9167 17.3792 17.15C16.7725 17.3833 16.0538 17.5 15.2232 17.5H11.7932V7.504Z" fill="#5940DF"/>
</g>
<defs>
<clipPath id="clip0_2045_41882">
<rect width="24" height="24" fill="white" transform="translate(0 0.5)"/>
</clipPath>
</defs>
</svg>
