<svg width="167" height="49" viewBox="0 0 167 49" fill="none" xmlns="http://www.w3.org/2000/svg">
<g clip-path="url(#clip0_2067_40949)">
<path d="M51.8305 13.8901V12.0817H55.7266V13.8901H60.7909V16.9169H55.7266C55.7266 17.2824 55.7073 17.6223 55.6624 17.9365C55.6239 18.2508 55.5597 18.5457 55.4762 18.8279L61.1824 21.0852L59.4237 23.6631L53.7625 21.4315C53.1142 21.9637 52.3183 22.4126 51.3683 22.7974C50.4184 23.1758 49.2887 23.5156 47.9793 23.817L46.3169 21.0916C47.2091 20.8928 47.9985 20.694 48.6725 20.4952C49.3529 20.2964 49.9241 20.0463 50.3863 19.7513C50.8484 19.4564 51.2014 19.0844 51.4389 18.6355C51.6764 18.1866 51.8048 17.6159 51.824 16.9233H47.0101V13.8965H51.824L51.8305 13.8901ZM63.3455 28.1457V27.0811H48.3837V24.5032H67.2416V30.7236H52.2798V31.7881H67.4919V34.3661H48.3837V28.1457H63.3455ZM67.2416 13.1462V23.3874H63.3455V19.8411L60.4892 20.4888V17.3914L63.3455 16.7438V13.1462H67.2416Z" fill="#4E505D"/>
<path d="M78.9043 33.6222V16.6668H70.6627V13.64H82.8004V33.6222H78.9043ZM90.5669 33.8723H86.6708V24.3044L83.5449 25.3689V22.2716L86.6708 21.207V13.1462H90.5669V33.8723Z" fill="#4E505D"/>
<path d="M108.533 30.3517V33.3528H93.0509V30.3517H108.533ZM93.4938 20.2323C93.4938 19.0588 93.6864 18.0199 94.0651 17.1093C94.4438 16.1987 94.9637 15.4355 95.6184 14.8135C96.2731 14.1915 97.0305 13.7233 97.9034 13.4027C98.7699 13.0821 99.7006 12.9217 100.696 12.9217C101.69 12.9217 102.595 13.0821 103.475 13.4027C104.354 13.7233 105.118 14.1979 105.773 14.8135C106.427 15.4355 106.941 16.1987 107.326 17.1093C107.705 18.0199 107.897 19.0588 107.897 20.2323C107.897 21.4058 107.705 22.4191 107.326 23.3168C106.947 24.2146 106.427 24.9777 105.773 25.5998C105.118 26.2218 104.354 26.69 103.475 27.0106C102.595 27.3312 101.671 27.4916 100.696 27.4916C99.7199 27.4916 98.7699 27.3312 97.9034 27.0106C97.0369 26.69 96.2731 26.2154 95.6184 25.5998C94.9637 24.9777 94.4502 24.221 94.0651 23.3168C93.6864 22.4191 93.4938 21.3866 93.4938 20.2323ZM100.696 24.4968C101.158 24.4968 101.594 24.3878 101.999 24.1762C102.403 23.9645 102.756 23.6631 103.051 23.2848C103.346 22.9064 103.577 22.4511 103.744 21.9317C103.911 21.4122 103.995 20.8479 103.995 20.2323C103.995 19.6167 103.911 19.0267 103.744 18.4944C103.577 17.9686 103.346 17.5133 103.051 17.1285C102.756 16.7502 102.403 16.4552 101.999 16.25C101.594 16.0448 101.158 15.9422 100.696 15.9422C100.201 15.9422 99.7456 16.0512 99.3412 16.2628C98.9368 16.4808 98.5902 16.7758 98.3014 17.1542C98.0125 17.5325 97.7879 17.9878 97.6338 18.5201C97.4734 19.0459 97.3963 19.6167 97.3963 20.2323C97.3963 20.8479 97.4798 21.4379 97.6467 21.9573C97.8136 22.4768 98.0382 22.9257 98.327 23.3104C98.6159 23.6888 98.9625 23.9838 99.3669 24.189C99.7712 24.3942 100.214 24.4968 100.696 24.4968ZM113.892 33.8723H109.996V13.1462H113.892V33.8723Z" fill="#4E505D"/>
<path d="M132.012 33.6222V16.6668H123.276V13.64H135.908V33.6222H132.012ZM143.174 33.8723H139.278V13.1462H143.174V33.8723Z" fill="#4E505D"/>
<path d="M154.689 29.8322V26.4848H146.274V23.4579H166.994V26.4848H158.579V29.8322H154.683H154.689ZM147.243 19.7898C148.713 19.6231 149.933 19.4499 150.889 19.2704C151.846 19.0908 152.609 18.8856 153.174 18.6612C153.739 18.4367 154.131 18.1802 154.355 17.8788C154.58 17.5838 154.689 17.2311 154.689 16.8399V16.3911H147.744V13.3899H165.537V16.3911H158.585V16.8399C158.585 17.3209 158.508 17.757 158.361 18.1546L166.005 19.8668L164.811 22.3485L156.448 20.4119C155.556 20.989 154.432 21.4443 153.072 21.7778C151.717 22.1112 150.17 22.3485 148.431 22.496L147.237 19.7962L147.243 19.7898ZM151.39 28.0431V31.3392H166.031V34.3661H147.494V28.0431H151.39Z" fill="#4E505D"/>
<path d="M15.6165 17.5197C15.501 17.6351 15.3084 17.6351 15.1929 17.5197C15.1672 17.494 15.148 17.462 15.1351 17.4363L12.9015 19.668C12.6511 19.9181 12.2468 19.9181 11.99 19.668L9.77558 17.4556C9.52525 17.2055 9.52525 16.8015 9.77558 16.545L12.0157 14.3069C11.9708 14.2941 11.9322 14.2684 11.9001 14.2364C11.7846 14.1209 11.7846 13.9285 11.9001 13.8131L12.4521 13.2616L11.9772 12.7871L13.7295 11.0364L14.2044 11.5109L14.7564 10.9594C14.872 10.844 15.0645 10.844 15.1801 10.9594C15.2122 10.9915 15.2378 11.0364 15.2507 11.0749L17.4908 8.8368C17.7411 8.58671 18.1455 8.58671 18.4022 8.8368L20.6167 11.0492C20.867 11.2993 20.867 11.7033 20.6167 11.9598L18.383 14.1915C18.383 14.1915 18.4407 14.2235 18.4664 14.2492C18.5819 14.3646 18.5819 14.557 18.4664 14.6724L17.9144 15.2239L26.4255 23.7273L34.1921 15.9678L19.0248 0.795186C17.9593 -0.269334 16.2327 -0.269334 15.1672 0.795186L0.969214 14.9867L18.0299 32.0318L18.5819 31.4803C18.6975 31.3649 18.89 31.3649 19.0056 31.4803C19.0312 31.506 19.0505 31.538 19.0633 31.5637L21.297 29.332C21.5474 29.0819 21.9517 29.0819 22.2085 29.332L24.4229 31.5444C24.6732 31.7945 24.6732 32.1985 24.4229 32.455L22.1828 34.6931C22.2277 34.7059 22.2662 34.7316 22.2983 34.7636C22.4139 34.8791 22.4139 35.0715 22.2983 35.1869L21.7463 35.7384L22.2213 36.2129L20.469 37.9636L19.994 37.4891L19.442 38.0406C19.3265 38.156 19.1339 38.156 19.0184 38.0406C18.9863 38.0085 18.9606 37.9636 18.9478 37.9251L16.7077 40.1632C16.4574 40.4133 16.053 40.4133 15.7963 40.1632L13.5818 37.9508C13.3315 37.7007 13.3315 37.2967 13.5818 37.0402L15.8155 34.8085C15.8155 34.8085 15.7577 34.7765 15.7321 34.7508C15.6165 34.6354 15.6165 34.443 15.7321 34.3276L16.2841 33.7761L7.77297 25.2727L0 33.0386L15.1737 48.1984C16.2391 49.2629 17.9658 49.2629 19.0312 48.1984L33.2357 34.0069L16.175 16.9618L15.623 17.5133L15.6165 17.5197Z" fill="#4E505D"/>
</g>
<defs>
<clipPath id="clip0_2067_40949">
<rect width="167" height="49" fill="white"/>
</clipPath>
</defs>
</svg>
