<svg width="258" height="248" viewBox="0 0 258 248" fill="none" xmlns="http://www.w3.org/2000/svg">
<g clip-path="url(#clip0_2067_40781)">
<path d="M11.7741 175.197V171.318H20.1037V175.197H30.9309V181.691H20.1037C20.1037 182.475 20.0626 183.204 19.9665 183.878C19.8842 184.552 19.7469 185.185 19.5685 185.79L31.768 190.633L28.008 196.163L15.9046 191.376C14.5186 192.517 12.817 193.48 10.786 194.306C8.75507 195.117 6.33988 195.847 3.54045 196.493L-0.0137177 190.646C1.89373 190.22 3.58162 189.793 5.0225 189.367C6.47711 188.941 7.69843 188.404 8.68646 187.771C9.67449 187.138 10.4292 186.34 10.937 185.377C11.4447 184.414 11.7192 183.19 11.7603 181.704H1.48205V175.211H11.7741V175.197ZM36.3925 205.779V203.496H4.40498V197.965H44.7222V211.31H12.7346V213.593H45.2574V219.124H4.40498V205.779H36.3925ZM44.7222 173.601V195.571H36.3925V187.964L30.2859 189.353V182.709L36.3925 181.319V173.601H44.7222Z" fill="white"/>
<path d="M69.6563 217.528V181.154H52.0364V174.661H77.986V217.528H69.6563ZM94.5904 218.064H86.2607V197.539L79.5778 199.822V193.178L86.2607 190.894V173.601H94.5904V218.064Z" fill="white"/>
<path d="M133 210.512V216.95H99.9011V210.512H133ZM100.848 188.803C100.848 186.285 101.26 184.057 102.069 182.103C102.879 180.15 103.99 178.513 105.39 177.178C106.79 175.844 108.409 174.84 110.275 174.152C112.128 173.464 114.118 173.12 116.245 173.12C118.372 173.12 120.307 173.464 122.187 174.152C124.067 174.84 125.7 175.858 127.099 177.178C128.499 178.513 129.597 180.15 130.42 182.103C131.23 184.057 131.642 186.285 131.642 188.803C131.642 191.321 131.23 193.494 130.42 195.42C129.611 197.346 128.499 198.983 127.099 200.318C125.7 201.652 124.067 202.656 122.187 203.344C120.307 204.032 118.331 204.376 116.245 204.376C114.159 204.376 112.128 204.032 110.275 203.344C108.423 202.656 106.79 201.638 105.39 200.318C103.99 198.983 102.893 197.36 102.069 195.42C101.26 193.494 100.848 191.279 100.848 188.803ZM116.245 197.952C117.233 197.952 118.166 197.718 119.03 197.264C119.895 196.81 120.65 196.163 121.281 195.351C121.912 194.54 122.406 193.563 122.763 192.449C123.12 191.334 123.298 190.124 123.298 188.803C123.298 187.482 123.12 186.217 122.763 185.075C122.406 183.947 121.912 182.97 121.281 182.145C120.65 181.333 119.895 180.7 119.03 180.26C118.166 179.82 117.233 179.599 116.245 179.599C115.188 179.599 114.214 179.833 113.349 180.287C112.485 180.755 111.744 181.388 111.126 182.2C110.509 183.011 110.028 183.988 109.699 185.13C109.356 186.258 109.191 187.482 109.191 188.803C109.191 190.124 109.37 191.389 109.727 192.504C110.083 193.618 110.564 194.581 111.181 195.406C111.799 196.218 112.54 196.851 113.404 197.291C114.269 197.731 115.216 197.952 116.245 197.952ZM144.459 218.064H136.129V173.601H144.459V218.064Z" fill="white"/>
<path d="M183.198 217.528V181.154H164.521V174.661H191.527V217.528H183.198ZM207.061 218.064H198.732V173.601H207.061V218.064Z" fill="white"/>
<path d="M231.68 209.384V202.202H213.689V195.709H257.986V202.202H239.996V209.384H231.666H231.68ZM215.762 187.854C218.904 187.496 221.511 187.125 223.556 186.739C225.601 186.354 227.234 185.914 228.441 185.432C229.649 184.951 230.486 184.401 230.966 183.754C231.447 183.121 231.68 182.365 231.68 181.525V180.562H216.832V174.124H254.871V180.562H240.01V181.525C240.01 182.557 239.845 183.493 239.529 184.346L255.873 188.019L253.321 193.343L235.44 189.188C233.532 190.426 231.131 191.403 228.222 192.118C225.326 192.834 222.019 193.343 218.3 193.659L215.748 187.867L215.762 187.854ZM224.626 205.559V212.63H255.928V219.124H216.297V205.559H224.626Z" fill="white"/>
<path d="M124.547 52.7861C124.204 53.1301 123.628 53.1301 123.285 52.7861C123.202 52.7036 123.147 52.6211 123.106 52.5248L116.409 59.2382C115.655 59.9949 114.433 59.9949 113.679 59.2382L107.023 52.566C106.268 51.8094 106.268 50.585 107.023 49.8284L113.761 43.0736C113.637 43.0323 113.514 42.9635 113.404 42.8535C113.061 42.5095 113.061 41.9317 113.404 41.5878L115.065 39.9232L113.637 38.4925L118.907 33.2097L120.334 34.6405L121.995 32.9758C122.338 32.6319 122.914 32.6319 123.257 32.9758C123.353 33.0721 123.422 33.196 123.477 33.3335L130.214 26.5788C130.969 25.8221 132.191 25.8221 132.945 26.5788L139.601 33.251C140.356 34.0076 140.356 35.232 139.601 35.9887L132.904 42.7022C133 42.7434 133.083 42.7985 133.165 42.881C133.508 43.2249 133.508 43.8027 133.165 44.1467L131.504 45.8113L157.056 71.4271L180.371 48.0537L134.784 2.40748C131.587 -0.797936 126.4 -0.797936 123.202 2.40748L80.5521 45.1647L131.779 96.5201L133.439 94.8555C133.782 94.5115 134.359 94.5115 134.702 94.8555C134.784 94.938 134.839 95.0206 134.88 95.1169L141.577 88.4034C142.332 87.6467 143.553 87.6467 144.308 88.4034L150.963 95.0756C151.718 95.8322 151.718 97.0566 150.963 97.8133L144.225 104.568C144.349 104.609 144.472 104.678 144.582 104.788C144.925 105.132 144.925 105.71 144.582 106.054L142.922 107.718L144.349 109.149L139.079 114.432L137.652 113.001L135.992 114.666C135.649 115.01 135.072 115.01 134.729 114.666C134.633 114.569 134.565 114.446 134.51 114.308L127.772 121.063C127.017 121.819 125.796 121.819 125.041 121.063L118.386 114.391C117.631 113.634 117.631 112.41 118.386 111.653L125.082 104.939C124.986 104.898 124.904 104.843 124.821 104.761C124.478 104.417 124.478 103.839 124.821 103.495L126.482 101.83L100.93 76.2146L77.6154 99.5879L123.175 145.262C126.372 148.467 131.559 148.467 134.757 145.262L177.407 102.504L126.18 51.149L124.52 52.8137L124.547 52.7861Z" fill="white"/>
</g>
<defs>
<clipPath id="clip0_2067_40781">
<rect width="258" height="248" fill="white"/>
</clipPath>
</defs>
</svg>
