<svg width="42" height="24" viewBox="0 0 42 24" fill="none" xmlns="http://www.w3.org/2000/svg">
<g clip-path="url(#clip0_2884_79664)">
<rect width="42" height="24" rx="12" fill="#B6D3F9"/>
<path fill-rule="evenodd" clip-rule="evenodd" d="M36.2883 18.2979C36.2883 18.5694 36.261 18.8344 36.209 19.0905H36.2883C37.6019 19.0905 38.6667 20.1553 38.6667 21.4689C38.6667 22.7824 37.6019 23.8473 36.2883 23.8473H29.5496C29.4884 23.8473 29.4278 23.8449 29.3678 23.8404C29.2968 23.8451 29.2253 23.8476 29.1532 23.8476H27.1712C25.4198 23.8476 24 22.4278 24 20.6764C24 18.925 25.4198 17.5052 27.1712 17.5052H28.4396C28.8069 15.6958 30.4066 14.334 32.3243 14.334C34.5136 14.334 36.2883 16.1087 36.2883 18.2979Z" fill="url(#paint0_linear_2884_79664)"/>
<path fill-rule="evenodd" clip-rule="evenodd" d="M46.2882 6.96396C46.2882 7.23538 46.2609 7.50043 46.2089 7.75651H46.2882C47.6018 7.75651 48.6666 8.82135 48.6666 10.1349C48.6666 11.4484 47.6018 12.5133 46.2882 12.5133H39.5495C39.4883 12.5133 39.4277 12.511 39.3676 12.5064C39.2967 12.5112 39.2252 12.5136 39.153 12.5136H37.171C35.4197 12.5136 33.9999 11.0938 33.9999 9.3424C33.9999 7.59101 35.4197 6.17122 37.1711 6.17122H38.4395C38.8068 4.36185 40.4064 3 42.3242 3C44.5134 3 46.2882 4.77473 46.2882 6.96396Z" fill="url(#paint1_linear_2884_79664)"/>
<circle cx="14" cy="12" r="8" fill="#FFE791"/>
</g>
<defs>
<linearGradient id="paint0_linear_2884_79664" x1="29.3513" y1="15.5232" x2="29.3513" y2="22.9721" gradientUnits="userSpaceOnUse">
<stop stop-color="white"/>
<stop offset="1" stop-color="#D4EAFF"/>
</linearGradient>
<linearGradient id="paint1_linear_2884_79664" x1="39.3512" y1="4.18918" x2="39.3512" y2="11.6382" gradientUnits="userSpaceOnUse">
<stop stop-color="white"/>
<stop offset="1" stop-color="#D4EAFF"/>
</linearGradient>
<clipPath id="clip0_2884_79664">
<rect width="42" height="24" rx="12" fill="white"/>
</clipPath>
</defs>
</svg>
