<svg width="42" height="24" viewBox="0 0 42 24" fill="none" xmlns="http://www.w3.org/2000/svg">
<rect width="42" height="24" rx="12" fill="#434850"/>
<g clip-path="url(#clip0_2884_79662)">
<g filter="url(#filter0_d_2884_79662)">
<path d="M36.6667 13.7648C35.9491 14.0353 35.1714 14.1833 34.3592 14.1833C30.7458 14.1833 27.8165 11.2541 27.8165 7.64071C27.8165 6.8284 27.9646 6.05066 28.2351 5.33301C25.7604 6.26594 24 8.65593 24 11.4571C24 15.0705 26.9292 17.9997 30.5426 17.9997C33.3437 17.9997 35.7337 16.2394 36.6667 13.7648Z" fill="#FFFDC3"/>
</g>
</g>
<path d="M18.4842 3.73955C18.5549 3.58208 18.7785 3.58208 18.8492 3.73955L19.5445 5.28887C19.5736 5.35367 19.6349 5.39818 19.7055 5.40582L21.3939 5.58838C21.5655 5.60694 21.6346 5.81957 21.5066 5.93545L20.248 7.07554C20.1954 7.12322 20.172 7.19525 20.1865 7.26477L20.5346 8.92691C20.57 9.09586 20.3892 9.22727 20.2394 9.14141L18.7662 8.29671C18.7046 8.26139 18.6288 8.26139 18.5672 8.29671L17.094 9.14141C16.9443 9.22727 16.7634 9.09586 16.7988 8.92691L17.1469 7.26477C17.1614 7.19525 17.138 7.12322 17.0854 7.07554L15.8268 5.93545C15.6989 5.81957 15.7679 5.60694 15.9396 5.58838L17.6279 5.40582C17.6985 5.39818 17.7598 5.35367 17.7889 5.28887L18.4842 3.73955Z" fill="#FFFDC3"/>
<path d="M13.1508 13.7396C13.2215 13.5821 13.4451 13.5821 13.5158 13.7396L14.0262 14.8768C14.0552 14.9416 14.1165 14.9861 14.1871 14.9937L15.4264 15.1277C15.598 15.1463 15.6671 15.3589 15.5392 15.4748L14.6153 16.3116C14.5627 16.3593 14.5393 16.4313 14.5539 16.5009L14.8094 17.7209C14.8448 17.8898 14.6639 18.0213 14.5141 17.9354L13.4328 17.3154C13.3712 17.2801 13.2954 17.2801 13.2338 17.3154L12.1524 17.9354C12.0027 18.0213 11.8218 17.8898 11.8572 17.7209L12.1127 16.5009C12.1273 16.4313 12.1039 16.3593 12.0512 16.3116L11.1274 15.4748C10.9995 15.3589 11.0686 15.1463 11.2402 15.1277L12.4795 14.9937C12.5501 14.9861 12.6113 14.9416 12.6404 14.8768L13.1508 13.7396Z" fill="#FFFDC3"/>
<circle cx="7.33329" cy="8.66667" r="0.666667" fill="#FFFDC3"/>
<defs>
<filter id="filter0_d_2884_79662" x="19.3333" y="0.666341" width="22" height="22.0003" filterUnits="userSpaceOnUse" color-interpolation-filters="sRGB">
<feFlood flood-opacity="0" result="BackgroundImageFix"/>
<feColorMatrix in="SourceAlpha" type="matrix" values="0 0 0 0 0 0 0 0 0 0 0 0 0 0 0 0 0 0 127 0" result="hardAlpha"/>
<feOffset/>
<feGaussianBlur stdDeviation="2.33333"/>
<feComposite in2="hardAlpha" operator="out"/>
<feColorMatrix type="matrix" values="0 0 0 0 1 0 0 0 0 0.992157 0 0 0 0 0.764706 0 0 0 0.5 0"/>
<feBlend mode="normal" in2="BackgroundImageFix" result="effect1_dropShadow_2884_79662"/>
<feBlend mode="normal" in="SourceGraphic" in2="effect1_dropShadow_2884_79662" result="shape"/>
</filter>
<clipPath id="clip0_2884_79662">
<rect width="22.6667" height="22.6667" fill="white" transform="translate(18.6666 0.666992)"/>
</clipPath>
</defs>
</svg>
